<svg width="46" height="31" viewBox="0 0 46 31" fill="none" xmlns="http://www.w3.org/2000/svg">
<path d="M23 19.3751L28.75 15.5001M28.75 15.5001L23 11.6251M28.75 15.5001H7.66663M17.25 9.36284V9.30033C17.25 7.85353 17.25 7.12959 17.6678 6.57699C18.0353 6.0909 18.6213 5.69599 19.3426 5.44831C20.1626 5.16675 21.2368 5.16675 23.3837 5.16675H32.2003C34.3472 5.16675 35.4191 5.16675 36.2391 5.44831C36.9604 5.69599 37.5484 6.0909 37.9159 6.57699C38.3333 7.12905 38.3333 7.85212 38.3333 9.29609V21.7047C38.3333 23.1487 38.3333 23.8707 37.9159 24.4228C37.5484 24.9088 36.9604 25.3045 36.2391 25.5521C35.4199 25.8334 34.3486 25.8334 32.2059 25.8334H23.3774C21.2347 25.8334 20.1618 25.8334 19.3426 25.5521C18.6213 25.3045 18.0353 24.9085 17.6678 24.4224C17.25 23.8698 17.25 23.1469 17.25 21.7001V21.6355" stroke="#007AFF" stroke-width="2" stroke-linecap="round" stroke-linejoin="round"/>
</svg>
